# xmcd
#
# Track frame offsets:
# 150
# 13396
# 27740
# 42330
# 56638
# 71401
# 87121
# 101305
# 114719
# 128822
# 141575
# 154179
# 168817
#
# Disc length: 2425 seconds
#
#
# Revision: 0
# Processed by: cddbd v1.5.2PL0 Copyright (c) Steve Scherf et al.
# Submitted via: FreeRIP 2.945 
#
DISCID=b409770d
DTITLE=Garotos de Ouro - Filhinho do Papai
DYEAR=1900
DGENRE=
TTITLE0=Filhinho do Papai
TTITLE1=A Gaia
TTITLE2=Desejos
TTITLE3=Coisa de Cinema
TTITLE4=Dança do Siri
TTITLE5=Moldura
TTITLE6=Víruz da Paixão
TTITLE7=Tô Passando
TTITLE8=Pra me Encher de Amor
TTITLE9=Curte esse Som
TTITLE10=Conheço e Como
TTITLE11=Tum tum tum
TTITLE12=Deixa Eu Te Amar
EXTD=
EXTT0=
EXTT1=
EXTT2=
EXTT3=
EXTT4=
EXTT5=
EXTT6=
EXTT7=
EXTT8=
EXTT9=
EXTT10=
EXTT11=
EXTT12=
PLAYORDER=
